<?xml version="1.0" standalone="no"?>
<!DOCTYPE svg PUBLIC "-//W3C//DTD SVG 20010904//EN"
 "http://www.w3.org/TR/2001/REC-SVG-20010904/DTD/svg10.dtd">
<svg version="1.0" xmlns="http://www.w3.org/2000/svg"
 width="577.000000pt" height="796.000000pt" viewBox="0 0 577.000000 796.000000"
 preserveAspectRatio="xMidYMid meet">
<metadata>
Created by potrace 1.16, written by Peter Selinger 2001-2019
</metadata>
<g transform="translate(0.000000,796.000000) scale(0.100000,-0.100000)"
fill="#000000" stroke="none">
<path d="M1569 7907 c-129 -108 -256 -250 -320 -358 -63 -108 -111 -279 -79
-279 25 0 103 45 129 76 16 18 52 77 80 131 75 146 115 186 204 208 l27 7 0
-156 0 -156 23 0 c48 0 181 41 255 78 43 21 118 65 167 97 50 32 131 78 180
101 84 40 199 73 210 62 7 -7 -15 -67 -68 -183 -52 -114 -70 -181 -65 -251 l3
-49 145 5 c290 10 451 6 513 -13 31 -10 57 -21 57 -25 0 -4 -30 -33 -66 -66
-75 -67 -110 -115 -129 -179 -13 -42 -12 -46 8 -64 46 -41 118 -83 303 -177
200 -101 234 -123 234 -150 0 -13 -11 -16 -62 -16 -67 0 -123 -21 -142 -53
-15 -25 2 -33 84 -41 125 -11 274 25 355 87 20 15 20 16 -5 42 -39 42 -122 95
-280 179 -152 81 -245 143 -294 195 l-29 30 25 39 c14 21 62 77 106 125 73 79
132 173 132 210 0 18 -31 32 -106 47 -44 9 -134 11 -349 6 -159 -4 -296 -3
-302 2 -10 6 -7 16 10 42 58 87 103 247 114 398 7 109 13 106 -121 67 -117
-34 -191 -69 -351 -165 -168 -101 -280 -157 -370 -186 l-70 -22 -6 136 c-9
187 -30 272 -67 272 -10 0 -47 -24 -83 -53z"/>
<path d="M985 7702 c-10 -26 -51 -94 -91 -152 -114 -168 -154 -264 -154 -372
l0 -48 45 0 c116 0 197 95 239 277 24 107 17 306 -12 335 -4 4 -16 -14 -27
-40z"/>
<path d="M483 7478 c8 -101 25 -146 73 -195 53 -56 80 -57 94 -2 23 83 -24
203 -96 245 -70 41 -78 36 -71 -48z"/>
<path d="M267 7319 c-16 -9 -11 -17 47 -72 91 -85 89 -112 -9 -186 -30 -23
-55 -48 -55 -56 0 -17 59 -35 116 -35 50 0 124 25 153 51 26 25 29 114 5 164
-48 102 -188 174 -257 134z"/>
<path d="M368 6779 c-21 -11 -38 -23 -38 -27 0 -4 42 -28 94 -55 51 -26 114
-66 139 -88 55 -48 96 -127 99 -192 l3 -48 -68 -3 c-51 -3 -84 -11 -131 -35
-109 -53 -141 -106 -153 -246 -18 -215 132 -367 375 -383 78 -5 82 -6 82 -29
0 -13 9 -56 20 -95 26 -95 20 -124 -36 -168 -74 -58 -207 -201 -288 -310 -167
-224 -288 -466 -402 -804 -35 -104 -41 -132 -32 -150 16 -33 50 -66 66 -66 15
0 15 1 -8 -143 -11 -67 -10 -90 4 -169 23 -125 76 -286 148 -448 33 -74 62
-141 65 -147 4 -9 -9 -13 -45 -13 -143 0 -239 -122 -230 -291 4 -68 8 -82 39
-125 42 -59 109 -96 184 -102 68 -6 96 1 134 34 l31 26 44 -39 c195 -171 735
-257 1119 -178 258 53 407 159 407 290 0 95 -55 148 -199 191 -92 28 -136 47
-163 72 -17 14 -17 17 7 60 14 24 25 49 25 55 0 26 -57 90 -128 144 -166 126
-231 208 -235 295 l-2 41 261 176 c509 342 800 496 1112 585 399 115 742 97
1047 -53 264 -130 463 -350 551 -609 49 -145 65 -240 71 -415 5 -121 9 -160
19 -164 10 -4 14 -24 14 -69 0 -56 2 -64 19 -64 16 0 23 15 40 88 69 292 46
577 -64 809 -105 223 -283 399 -520 515 -232 115 -442 155 -749 145 -247 -8
-413 -43 -646 -134 -254 -100 -449 -209 -720 -402 -225 -160 -299 -205 -315
-189 -2 2 19 39 47 83 74 116 133 239 158 327 23 85 49 265 50 341 l0 47 40
-29 c58 -42 125 -55 246 -48 87 5 111 10 161 36 76 38 139 89 235 187 114 119
134 143 478 594 139 182 214 329 275 540 18 63 37 116 42 117 5 2 35 -6 68
-17 67 -23 86 -25 103 -8 9 9 0 19 -37 44 -52 35 -75 63 -110 132 -21 41 -16
57 9 27 7 -8 39 -33 72 -55 68 -45 112 -51 149 -21 23 19 23 20 4 27 -116 42
-193 96 -176 123 7 11 13 11 32 -2 13 -8 43 -17 66 -21 23 -3 48 -9 57 -12 27
-10 19 32 -11 55 -14 12 -78 37 -142 57 -64 19 -165 50 -226 69 -108 34 -124
34 -125 0 0 -5 36 -44 79 -85 43 -41 84 -85 90 -97 50 -99 -73 -477 -244 -748
-59 -94 -160 -225 -173 -225 -5 0 -14 17 -21 38 -21 59 -78 140 -119 167 -22
14 -67 30 -103 36 -66 12 -99 31 -99 57 0 8 25 41 56 74 30 32 52 62 49 68 -3
5 -23 10 -44 10 -35 0 -41 -4 -74 -55 -25 -37 -42 -53 -52 -49 -25 10 -17 49
20 95 38 49 44 73 18 87 -13 8 -26 0 -60 -38 -43 -48 -92 -76 -116 -67 -8 3
-24 34 -37 69 -77 212 -208 398 -356 504 -64 46 -178 104 -205 104 -13 0 -19
-31 -34 -175 -10 -100 -15 -200 -12 -234 16 -151 93 -253 249 -331 83 -41 94
-43 205 -51 152 -9 220 -32 285 -94 64 -60 75 -148 28 -215 -68 -95 -282 -109
-329 -22 -5 10 -14 46 -20 80 -12 73 -24 98 -51 105 -49 13 -65 -82 -31 -174
46 -119 104 -160 228 -160 61 0 96 8 211 46 75 26 166 53 202 61 77 16 160 18
160 4 0 -25 -144 -237 -222 -326 -134 -155 -301 -244 -458 -244 -93 0 -155 24
-211 80 -50 50 -79 119 -79 187 0 36 10 42 31 17 43 -53 194 -94 341 -94 164
0 272 42 313 121 32 60 15 63 -93 15 -109 -47 -171 -60 -266 -53 -134 8 -232
58 -376 191 -25 22 -85 77 -134 121 -98 88 -168 179 -198 258 -24 60 -28 195
-9 265 16 56 43 56 96 2 40 -41 85 -54 85 -25 0 25 -35 88 -66 119 -41 40 -99
67 -160 73 -52 6 -53 5 -61 -23 -11 -39 -10 -234 1 -361 l9 -103 -54 0 c-73 1
-126 14 -153 40 -19 17 -24 35 -29 110 -4 49 -15 112 -24 142 l-18 53 -75 6
c-197 17 -350 138 -350 276 0 44 5 58 30 86 66 76 223 108 334 68 33 -11 61
-19 64 -17 8 9 -19 146 -42 214 -50 150 -167 307 -261 351 -57 27 -128 27
-177 0z m1431 -725 c39 -33 68 -83 122 -209 23 -55 51 -112 61 -127 24 -34 14
-40 -65 -39 -168 1 -342 126 -371 267 l-7 32 63 4 c69 4 104 23 133 71 20 33
26 34 64 1z m661 -629 c31 -16 60 -61 60 -93 0 -45 -115 -54 -169 -14 -32 23
-40 52 -15 52 24 0 54 29 54 52 0 22 30 24 70 3z m-1361 -80 c138 -33 289
-142 361 -261 28 -47 77 -191 67 -200 -1 -1 -51 -9 -112 -18 -306 -46 -328
-46 -401 10 -25 19 -48 34 -50 31 -7 -6 -54 -634 -54 -717 0 -88 0 -88 115
-167 38 -27 70 -54 73 -60 2 -7 -9 -18 -25 -24 -37 -15 -147 2 -300 45 -180
52 -637 196 -645 204 -10 11 19 72 35 72 7 0 47 -11 88 -25 126 -44 280 -85
374 -100 103 -17 191 -19 200 -6 9 16 -59 60 -132 85 -38 13 -168 45 -289 71
-120 27 -223 51 -227 55 -5 4 8 40 28 79 l36 72 62 -6 c34 -4 134 -31 222 -60
193 -64 214 -69 273 -60 l47 7 -34 28 c-77 65 -265 140 -436 175 -44 9 -81 18
-83 20 -9 8 8 52 40 105 26 43 39 56 61 58 15 2 98 -17 185 -42 176 -50 292
-70 292 -50 0 19 -69 75 -125 100 -27 13 -107 40 -177 61 -71 21 -128 42 -128
48 0 5 17 33 38 60 30 40 45 51 71 53 32 3 215 -44 287 -74 20 -8 38 -13 41
-10 11 11 -20 74 -50 103 -52 50 -91 65 -197 78 -19 2 -36 4 -38 4 -12 3 48
86 70 97 54 28 164 7 238 -46 32 -22 40 -18 40 22 0 36 -31 68 -100 103 -60
31 -57 45 18 69 95 30 149 32 241 11z m459 -594 c9 -5 12 -24 10 -56 -4 -59 7
-55 -225 -85 -159 -20 -264 -40 -307 -56 -18 -7 -18 -3 -12 62 13 121 2 111
124 107 74 -3 142 2 222 16 131 22 169 24 188 12z m17 -211 c3 -5 0 -36 -6
-69 -18 -85 -18 -85 -296 -89 l-232 -3 -6 24 c-4 14 -5 36 -3 48 4 32 54 44
277 64 97 8 192 19 211 24 48 12 48 12 55 1z m-40 -288 c-9 -20 -24 -48 -34
-62 l-18 -25 -164 2 c-90 1 -192 4 -226 8 l-63 7 0 38 c0 63 5 64 269 70 130
3 239 4 243 2 4 -2 1 -20 -7 -40z m-105 -204 c0 -6 -30 -63 -67 -127 -108
-188 -150 -265 -157 -289 -6 -18 -11 -21 -21 -12 -26 21 -34 102 -28 273 l6
167 134 0 c94 0 133 -3 133 -12z m-850 -110 c96 -28 242 -67 325 -88 l150 -37
17 -64 c9 -35 17 -97 17 -138 l1 -74 -37 7 c-21 3 -165 6 -320 6 l-283 0 -18
38 c-11 20 -22 54 -26 75 -7 38 -22 47 -44 25 -15 -15 -16 -75 -1 -117 14 -41
9 -46 -35 -31 -46 15 -100 79 -127 149 -38 103 -36 253 6 318 l14 21 93 -20
c51 -11 172 -43 268 -70z m680 -556 c0 -11 -22 -45 -50 -76 -91 -104 -51 -118
52 -18 40 39 48 43 54 28 4 -10 -1 -33 -10 -52 -21 -44 -22 -104 -1 -104 18 0
41 35 50 78 7 36 46 68 67 56 41 -24 97 -79 108 -103 23 -57 12 -73 -68 -98
-157 -49 -422 -82 -408 -50 42 100 43 179 4 248 -30 53 -65 63 -197 56 -141
-8 -151 -11 -151 -51 0 -88 76 -217 136 -232 14 -4 23 -11 21 -17 -6 -18 -88
-38 -124 -31 -94 18 -172 134 -181 268 l-4 73 108 7 c60 4 156 14 214 21 58 7
167 13 243 14 127 1 137 0 137 -17z m-860 -334 c52 -27 54 -45 14 -114 -13
-22 -24 -53 -24 -68 0 -32 -44 -62 -106 -72 -54 -8 -111 21 -149 75 -26 38
-27 44 -17 80 25 82 81 120 177 121 43 0 74 -6 105 -22z m390 -211 c123 -60
260 -70 367 -28 24 9 70 43 103 74 32 32 68 57 79 57 20 0 19 -3 -11 -64 -30
-62 -32 -89 -9 -125 16 -25 61 -4 77 37 36 91 48 110 71 121 14 7 28 10 30 7
2 -2 -3 -25 -11 -50 -24 -69 -21 -94 10 -102 38 -10 63 20 74 90 10 61 23 86
46 86 20 0 23 -13 14 -56 -22 -105 -22 -112 0 -119 34 -11 66 18 79 72 16 61
26 73 66 73 37 0 50 -12 61 -55 3 -17 14 -38 23 -49 15 -17 14 -20 -24 -52
-53 -46 -183 -108 -268 -129 -160 -38 -444 -34 -661 10 -238 48 -439 117 -444
153 -6 42 19 102 69 159 l50 58 67 -66 c45 -44 92 -77 142 -102z m296 143
c149 0 155 -3 112 -62 -60 -85 -225 -90 -390 -12 -85 40 -77 59 32 74 30 5 68
6 84 4 16 -2 89 -4 162 -4z"/>
<path d="M4897 3936 c-105 -38 -197 -147 -197 -233 0 -49 14 -58 46 -34 19 13
68 28 139 42 152 28 195 60 195 145 0 48 -14 70 -51 83 -42 14 -85 13 -132 -3z"/>
<path d="M3876 3679 c-30 -24 -50 -59 -61 -106 -6 -29 -3 -34 27 -53 18 -11
69 -32 113 -46 66 -22 123 -46 239 -102 15 -7 -2 85 -24 136 -30 66 -84 128
-143 162 -62 36 -113 39 -151 9z"/>
<path d="M4991 3664 c-97 -26 -181 -97 -181 -153 0 -38 9 -43 39 -22 47 32 94
42 228 48 l133 6 -6 26 c-21 89 -102 125 -213 95z"/>
<path d="M3582 3575 c-28 -24 -57 -88 -47 -104 2 -4 35 -28 73 -55 58 -39 78
-48 118 -49 l49 -2 -1 52 c-3 87 -60 165 -132 179 -21 4 -36 -1 -60 -21z"/>
<path d="M4783 3402 c-47 -25 -111 -89 -133 -133 -21 -40 -27 -123 -10 -134 5
-3 15 6 22 20 15 33 62 57 158 80 89 22 140 63 140 113 0 64 -101 95 -177 54z"/>
<path d="M3818 3313 c-47 -19 -48 -38 -5 -95 49 -65 180 -129 277 -136 l73 -5
-36 39 c-19 21 -59 68 -89 104 -53 65 -121 111 -163 109 -11 0 -37 -7 -57 -16z"/>
<path d="M5211 2745 c-118 -33 -239 -130 -308 -246 -36 -60 -73 -189 -73 -253
0 -23 7 -69 15 -103 l14 -62 -84 -85 c-70 -70 -92 -102 -129 -178 -24 -51 -49
-117 -55 -146 -16 -78 -14 -220 5 -283 41 -138 138 -254 261 -312 65 -30 74
-32 188 -32 138 0 196 14 292 71 179 106 301 290 333 498 19 127 -18 282 -90
373 l-20 26 34 46 c89 123 125 271 96 399 -27 114 -104 213 -205 263 -78 38
-188 48 -274 24z m144 -301 c75 -49 41 -200 -56 -249 -95 -50 -187 31 -158
137 11 42 61 105 93 118 35 14 95 11 121 -6z m-77 -604 c76 -47 93 -179 38
-289 -100 -196 -318 -257 -398 -111 -16 28 -19 50 -15 110 6 125 77 233 191
290 55 27 139 27 184 0z"/>
<path d="M4167 2742 c-6 -9 -57 -274 -57 -295 0 -15 13 -17 91 -17 81 0 90 -2
85 -17 -3 -10 -62 -313 -131 -673 -69 -360 -128 -667 -131 -683 l-6 -27 160 0
c157 0 160 0 165 23 11 42 327 1674 327 1685 0 14 -495 18 -503 4z"/>
<path d="M3146 2723 c-7 -26 -326 -1669 -326 -1682 0 -8 52 -11 169 -11 l169
0 62 323 c35 177 67 332 71 344 8 22 10 23 245 25 l237 3 28 140 c15 77 28
150 28 163 l1 22 -235 0 c-129 0 -235 3 -235 8 0 4 16 88 35 187 19 99 35 181
35 182 0 2 125 4 277 5 l278 3 27 140 c15 77 27 146 28 153 0 9 -95 12 -444
12 -415 0 -445 -1 -450 -17z"/>
<path d="M2765 768 c-15 -79 -29 -153 -32 -165 l-5 -23 1371 0 c754 0 1371 1
1371 3 0 1 14 71 30 156 17 85 30 158 30 163 0 4 -616 8 -1369 8 l-1369 0 -27
-142z"/>
<path d="M2671 303 c-17 -87 -31 -161 -31 -165 0 -5 616 -8 1369 -8 l1368 0
32 158 c17 86 31 160 31 165 0 4 -616 7 -1368 7 l-1369 0 -32 -157z"/>
</g>
</svg>
